<svg xmlns="http://www.w3.org/2000/svg" id="Layer_1" viewBox="0 0 182.9 53.76"><defs><style>.cls-1{fill:#fff;stroke-width:0}</style></defs><path d="M10.91 27.09V10.57c0-.85.03-1.67.2-2.55L5.64 9.45l-.61-3.47 5.88-2.35h5.17v23.46h-5.17ZM51.64 26.85c-3.2.34-7.24.34-10.88.34-3.13 0-5.13-1.84-5.17-4.73V8.25c.03-2.89 2.04-4.73 5.17-4.73 3.64 0 7.68 0 10.88.34L51.4 7.7h-9.01c-1.12 0-1.6.51-1.6 1.73V13h9.35v3.74h-9.35v4.52c0 1.26.48 1.77 1.6 1.77h9.01l.24 3.81ZM63 21.62c0 1.16.65 1.7 1.9 1.7h1.36l.58 3.5c-.85.44-2.92.68-4.01.68-2.96 0-4.83-1.66-4.83-4.62V3.29h5v18.32ZM76.93 20.39c.31 2.52 1.43 3.09 3.98 3.09 1.53 0 3.98-.14 6.26-.38l.48 3.13c-1.97.95-4.93 1.26-7.31 1.26-6.36 0-8.74-2.58-8.74-8.77 0-6.63 2.45-8.87 8.53-8.87 5.71 0 7.92 2.01 7.95 5.85 0 3.06-1.46 4.69-5.1 4.69h-6.05Zm4.66-3.03c1.36 0 1.56-.78 1.56-1.73 0-1.56-.68-2.11-2.86-2.11-2.52 0-3.33.68-3.47 3.84h4.76ZM108.75 26.38c-1.8.78-4.22 1.12-6.49 1.12-6.15 0-8.4-2.35-8.4-8.8s2.28-8.84 8.47-8.84c1.73 0 4.35.24 6.19 1.05l-.54 3.13c-1.84-.04-3.54-.07-4.79-.07-3.03 0-4.05 1.02-4.05 4.72s1.02 4.73 4.05 4.73c1.05 0 3.2-.04 5.13-.31l.44 3.26ZM121.96 21.62c0 1.26.48 1.7 1.84 1.7h2.14l.54 3.5c-1.26.44-3.54.68-4.73.68-3.03 0-4.79-1.77-4.79-4.83V13.7H114v-3.2l2.96-.17V5.64h5v4.69h4.66v3.37h-4.66v7.92ZM144.05 14.51h-1.36c-1.43 0-2.89.41-5.13 1.16v11.42h-5.03V10.33h3.91l.44 2.45c2.24-1.9 4.62-2.92 6.8-2.92h.88l-.51 4.66ZM153.96 2.92c.99 0 1.46.51 1.46 1.46v1.84c0 .99-.48 1.46-1.46 1.46h-2.24c-.99 0-1.46-.48-1.46-1.46V4.38c0-.95.48-1.46 1.46-1.46h2.24Zm-3.6 24.17V10.33h5v16.76h-5ZM176.75 26.38c-1.8.78-4.22 1.12-6.49 1.12-6.15 0-8.4-2.35-8.4-8.8s2.28-8.84 8.47-8.84c1.73 0 4.35.24 6.19 1.05l-.54 3.13c-1.84-.04-3.54-.07-4.79-.07-3.03 0-4.05 1.02-4.05 4.72s1.02 4.73 4.05 4.73c1.05 0 3.2-.04 5.13-.31l.44 3.26ZM17.28 42.52c.05.72.07 1.37.07 2.04v4.18h-.96v-16.8h.98v7.85c0 .74-.02 1.3-.1 1.97h1.9l4.37-4.58h1.18l-4.15 4.42c-.17.17-.46.43-.62.55v.05c.17.14.46.46.62.7l4.54 5.86h-1.15l-4.78-6.22h-1.9ZM42.01 42.95c0 4.46-1.37 6.07-5.16 6.07s-5.16-1.61-5.16-6.07 1.37-6.07 5.16-6.07 5.16 1.63 5.16 6.07Zm-9.31 0c0 3.96 1.08 5.23 4.15 5.23s4.18-1.27 4.18-5.23-1.1-5.21-4.18-5.21-4.15 1.25-4.15 5.21ZM51.91 46.2c0 1.25.62 1.82 1.85 1.82h2.02l.12.7c-.67.12-1.75.19-2.21.19-1.82 0-2.74-.94-2.74-2.62v-8.3h-2.09v-.7l2.09-.1v-3.6h.96v3.58h4.13v.82h-4.13v8.21ZM63.59 37.39c1.56-.21 3.29-.5 5.52-.5s3.41.91 3.41 3.36v8.5h-.72l-.17-2.13c-.98.96-3.19 2.3-5.38 2.3-1.97 0-3.14-1.08-3.14-3v-1.44c0-1.75 1.06-2.76 2.88-2.76h5.57v-1.46c0-1.46-.58-2.5-2.57-2.5-1.61 0-3.58.17-5.3.36l-.1-.72Zm.5 8.45c0 1.44.74 2.16 2.26 2.19 1.63.05 3.84-.94 5.21-2.21v-3.34l-5.47.07c-1.34.02-1.99.72-1.99 1.99v1.29ZM82.19 36.95c0 .87-.02 1.63-.12 2.26 1.92-1.44 3.72-2.33 5.5-2.33 2.06 0 3.12 1.08 3.12 3.17v8.69h-.96v-8.5c0-1.75-.74-2.5-2.38-2.5s-3.07.74-5.18 2.21v8.79h-.96v-16.8h.98v5.02ZM100.11 32.35c.24 0 .36.14.36.38v1.44c0 .26-.12.38-.36.38h-.43c-.26 0-.38-.12-.38-.38v-1.44c0-.24.12-.38.38-.38h.43Zm-.7 16.39V37.17h.94v11.57h-.94ZM120.82 36.95c0 .87-.02 1.63-.12 2.26 1.92-1.44 3.72-2.33 5.5-2.33 2.06 0 3.12 1.08 3.12 3.17v8.69h-.96v-8.5c0-1.75-.74-2.5-2.38-2.5s-3.07.74-5.18 2.21v8.79h-.96v-16.8h.98v5.02ZM138.74 32.35c.24 0 .36.14.36.38v1.44c0 .26-.12.38-.36.38h-.43c-.26 0-.38-.12-.38-.38v-1.44c0-.24.12-.38.38-.38h.43Zm-.7 16.39V37.17h.94v11.57h-.94ZM148.61 42.52c.05.72.07 1.37.07 2.04v4.18h-.96v-16.8h.98v7.85c0 .74-.02 1.3-.1 1.97h1.9l4.37-4.58h1.18l-4.15 4.42c-.17.17-.46.43-.62.55v.05c.17.14.46.46.62.7l4.54 5.86h-1.15l-4.78-6.22h-1.9ZM173.35 42.95c0 4.46-1.37 6.07-5.16 6.07s-5.16-1.61-5.16-6.07 1.37-6.07 5.16-6.07 5.16 1.63 5.16 6.07Zm-9.31 0c0 3.96 1.08 5.23 4.15 5.23s4.18-1.27 4.18-5.23-1.1-5.21-4.18-5.21-4.15 1.25-4.15 5.21Z" class="cls-1"/></svg>